<svg width="396" height="385" xmlns="http://www.w3.org/2000/svg" xmlns:xlink="http://www.w3.org/1999/xlink"><svg width="26" height="26" viewBox="-4 -4 26 26" x="81" y="335" xmlns="http://www.w3.org/2000/svg"><g fill="none" fill-rule="evenodd"><path d="M0 0h18v18H0z"/><path d="M13.815 6.522h-.002l.002-.04a4.815 4.815 0 10-9.63 0l.002.04h-.002c0 .105.008.218.02.335.029.378.1.745.21 1.094.518 1.925 2.172 6.038 3.345 7.733.6.866 1.875.867 2.473 0 1.234-1.792 3.01-6.111 3.44-8.058a4.92 4.92 0 00.122-.754c.012-.122.02-.24.02-.35" fill="#D2D8D9"/><path d="M11.046 6.461a2.046 2.046 0 11-4.092 0 2.046 2.046 0 014.092 0" fill="#FFF"/></g></svg><svg width="56" height="56" viewBox="-4 -4 56 56" x="189" xmlns="http://www.w3.org/2000/svg"><g fill="none" fill-rule="evenodd"><path d="M23.75 3.166c-11.37 0-20.586 9.217-20.586 20.586 0 5.244 1.976 10.014 5.204 13.648l-5.204 6.938H23.75c11.37 0 20.586-9.218 20.586-20.586 0-11.37-9.217-20.586-20.586-20.586z" stroke="#4AAF70" stroke-width="3" stroke-linejoin="round"/><path d="M21.654 23.756a2.1 2.1 0 114.2 0 2.1 2.1 0 01-4.2 0zm-4.807.001a2.1 2.1 0 11-4.201-.001 2.1 2.1 0 014.201 0zm18.015 0a2.1 2.1 0 11-4.201 0 2.1 2.1 0 014.2 0z" fill="#4AAF70"/><path d="M0 48V0h48v48z"/></g></svg><svg width="28" height="28" viewBox="-4 -4 28 28" x="108" y="103" xmlns="http://www.w3.org/2000/svg"><path stroke="#FFF" stroke-width="1.5" stroke-linecap="round" stroke-linejoin="round" d="M8 3l7 7-7 7" fill="none"/></svg><svg width="26" height="26" viewBox="-4 -4 26 26" x="55" y="335" xmlns="http://www.w3.org/2000/svg"><defs><path id="a" d="M0 0h18v18H0z"/></defs><g fill="none" fill-rule="evenodd"><mask id="b" fill="#fff"><use xlink:href="#a"/></mask><path stroke="#979797" stroke-width="1.125" stroke-linecap="round" stroke-linejoin="round" mask="url(#b)" d="M6.75 3.75L12 9l-5.25 5.25"/></g></svg><svg width="13" height="16" viewBox="-4 -4 13 16" x="128" y="363" xmlns="http://www.w3.org/2000/svg"><path stroke="#979797" stroke-width="1.5" d="M0 0l4 4-4 4" fill="none" stroke-linecap="round" stroke-linejoin="round"/></svg><svg width="38" height="38" viewBox="-4 -4 38 38" x="293" y="255" xmlns="http://www.w3.org/2000/svg"><defs><path id="c" d="M0 30V0h30v30z"/></defs><g fill="none" fill-rule="evenodd"><mask id="d" fill="#fff"><use xlink:href="#c"/></mask><path stroke="#D2D8D9" stroke-linecap="round" stroke-linejoin="round" mask="url(#d)" d="M11.277 7.975l7.096 7.101-7.096 7.101"/><path stroke="#D2D8D9" stroke-width="1.5" stroke-linecap="round" stroke-linejoin="round" d="M11 8l7 7-7 7"/></g></svg><svg width="13" height="16" viewBox="-4 -4 13 16" x="232" y="163" xmlns="http://www.w3.org/2000/svg"><path stroke="#4AAF70" stroke-width="1.5" d="M0 0l4 4-4 4" fill="none" stroke-linecap="round" stroke-linejoin="round"/></svg><svg width="13" height="16" viewBox="-4 -4 13 16" x="232" y="179" xmlns="http://www.w3.org/2000/svg"><path stroke="#F7F7F7" stroke-width="1.5" d="M0 0l4 4-4 4" fill="none" stroke-linecap="round" stroke-linejoin="round"/></svg><svg width="26" height="26" viewBox="-4 -4 26 26" x="107" y="335" xmlns="http://www.w3.org/2000/svg"><defs><path id="e" d="M0 0h18v18H0z"/></defs><g fill="none" fill-rule="evenodd"><mask id="f" fill="#fff"><use xlink:href="#e"/></mask><path stroke="#979797" stroke-width=".5" stroke-linecap="round" stroke-linejoin="round" mask="url(#f)" d="M6.75 4.75L11 9l-4.25 4.25"/></g></svg><svg width="26" height="26" viewBox="-4 -4 26 26" x="369" y="80" xmlns="http://www.w3.org/2000/svg"><defs><path id="g" d="M0 0h18v18H0z"/></defs><g fill="none" fill-rule="evenodd"><mask id="h" fill="#fff"><use xlink:href="#g"/></mask><path stroke="#979797" stroke-width="1.125" stroke-linecap="round" stroke-linejoin="round" mask="url(#h)" d="M6.75 4.75L11 9l-4.25 4.25"/></g></svg><svg width="26" height="26" viewBox="-4 -4 26 26" x="369" y="132" xmlns="http://www.w3.org/2000/svg"><defs><path id="i" d="M0 0h18v18H0z"/></defs><g fill="none" fill-rule="evenodd"><mask id="j" fill="#fff"><use xlink:href="#i"/></mask><g mask="url(#j)" stroke="#979797" stroke-linecap="round" stroke-linejoin="round" stroke-width="1.125"><path d="M4.75 4.75L9 9l-4.25 4.25"/><path d="M8.75 4.75L13 9l-4.25 4.25"/></g></g></svg><svg width="36" height="36" viewBox="-4 -4 36 36" x="333" y="108" xmlns="http://www.w3.org/2000/svg"><g fill="none" fill-rule="evenodd"><path d="M0 0h28v28H0z"/><path stroke="#333" stroke-width="1.2" d="M18 8l4.5 4.5L24 14l-6 6.001m6-5.923l-20-.124"/></g></svg><svg width="28" height="28" viewBox="-4 -4 28 28" x="136" y="103" xmlns="http://www.w3.org/2000/svg"><path stroke="#9EA7AD" stroke-width="1.5" stroke-linecap="round" stroke-linejoin="round" d="M8 3l7 7-7 7" fill="none"/></svg><svg width="20" height="21" viewBox="-4 -4 20 21" x="108" y="363" xmlns="http://www.w3.org/2000/svg"><path stroke="#9EA8AA" stroke-width="1.5" stroke-linecap="round" stroke-linejoin="round" d="M4 2.5l4 4-4 4" fill="none"/></svg><svg width="32" height="32" viewBox="-4 -4 32 32" x="50" y="131" xmlns="http://www.w3.org/2000/svg"><path stroke="#9EA8AA" stroke-width="1.5" stroke-linecap="round" stroke-linejoin="round" d="M9.75 5.25l6.75 6.375L9.75 18" fill="none"/></svg><svg width="24" height="24" viewBox="-4 -4 24 24" x="164" y="103" xmlns="http://www.w3.org/2000/svg"><path stroke="#979797" stroke-linecap="round" stroke-linejoin="round" d="M6 3l5 5-5 5" fill="none"/></svg><svg width="32" height="32" viewBox="-4 -4 32 32" x="146" y="131" xmlns="http://www.w3.org/2000/svg"><g stroke="#9EA7AD" stroke-linecap="round" stroke-width="1.5" fill="none" fill-rule="evenodd"><path stroke-linejoin="round" d="M5 11.8l7-7 7 7"/><path d="M12 5.756v13.357"/></g></svg><svg width="44" height="44" viewBox="-4 -4 44 44" x="245" xmlns="http://www.w3.org/2000/svg"><g transform="translate(3 4)" fill="none" fill-rule="evenodd"><path d="M6 27h18a6 6 0 006-6v-7.911a1 1 0 00-1-1H1a1 1 0 00-1 1V21a6 6 0 006 6z" fill="#FFF"/><path d="M25 3.75c1.174 0 2.236.476 3.005 1.245A4.237 4.237 0 0129.25 8h0v4L1 12.25.75 8c0-1.174.476-2.236 1.245-3.005A4.237 4.237 0 015 3.75h0z" stroke="#303535" stroke-width="1.5" fill="#4AAF70"/><rect stroke="#303535" stroke-width="1.5" x=".75" y="3.75" width="28.5" height="23.5" rx="5"/><rect fill="#222" x="4" width="2" height="4" rx="1"/><rect fill="#222" x="24" width="2" height="4" rx="1"/><path stroke="#303535" stroke-width="1.5" stroke-linecap="round" stroke-linejoin="round" d="M11.035 18.493l3.446 2.99 5.438-4.983"/></g></svg><svg width="58" height="28" viewBox="-4 -4 58 28" x="50" y="103" xmlns="http://www.w3.org/2000/svg"><g fill="none" fill-rule="evenodd"><path d="M40.475 0a2.35 2.35 0 011.71.742l7.166 7.619a2.4 2.4 0 010 3.279l-7.165 7.619a2.347 2.347 0 01-1.711.741H2.358A2.37 2.37 0 010 17.62V2.38A2.37 2.37 0 012.358 0h38.117z" fill="#9EA8AA"/><text font-family="Pretendard-Medium, Pretendard" font-size="12" font-weight="400" fill="#FFF"><tspan x="8" y="14">베스트</tspan></text></g></svg><svg width="43" height="43" viewBox="-4 -4 43 43" x="139" y="60" xmlns="http://www.w3.org/2000/svg"><path d="M24.815 8.75a3.388 3.388 0 013.38 3.39v8.043a3.386 3.386 0 01-3.38 3.39h-5.04l-1.72 2.799a.381.381 0 01-.058.085.576.576 0 01-.998-.005.516.516 0 01-.055-.08l-1.72-2.8h-5.042a3.382 3.382 0 01-3.376-3.389V12.14a3.384 3.384 0 013.376-3.39zm-1.322 5.912a1.803 1.803 0 00-1.851 2.004v.029c.006.24.11 1.915 1.8 1.915.438.008.858-.174 1.15-.5v.305s.094.958-.833.958h-.315v1.16h.51a1.901 1.901 0 001.914-2.045V14.79h-1.275v.372a1.43 1.43 0 00-1.1-.5zm-4.726.001s-2.165 0-2.165 2.02a1.958 1.958 0 002.165 1.995s2.213-.005 2.213-1.995a1.987 1.987 0 00-2.213-2.02zm-8.326-1.579H9.133v5.455h1.321v-.428c.242.369.66.584 1.1.567a1.933 1.933 0 001.845-2.04s-.068-1.993-1.844-1.993v-.002a1.74 1.74 0 00-1.114.517v-2.076zm3.38-.127v1.266s.596-.027.596 1.088v3.227h1.264v-3.556c-.002-.245-.078-2.025-1.86-2.025zm-2.555 2.885a.84.84 0 110 1.68.84.84 0 010-1.68zm7.823.064a.84.84 0 11-.644 1.552.84.84 0 01.644-1.552zm4.723-.066a.84.84 0 11-.002 1.68.84.84 0 01.002-1.68z" fill="#646465"/></svg><svg width="28" height="28" viewBox="-4 -4 28 28" y="335" xmlns="http://www.w3.org/2000/svg"><g fill="none" fill-rule="evenodd"><g fill="#CCC"><path d="M16.076 17.593L10 13.544l-6.076 4.05V2.406h12.152z"/><path d="M4.669 3.152v13.052l4.919-3.28a.742.742 0 01.823 0l4.919 3.28V3.152H4.669zm11.403 15.182a.737.737 0 01-.411-.125L10 14.436l-5.662 3.773a.744.744 0 01-1.155-.618V2.41c0-.41.332-.743.743-.743h12.146c.411 0 .743.333.743.743v15.18a.742.742 0 01-.743.743"/></g><path d="M0 20V0h20v20z"/></g></svg><svg width="28" height="28" viewBox="-4 -4 28 28" x="252" y="299" xmlns="http://www.w3.org/2000/svg"><g fill="#303535" fill-rule="evenodd"><path d="M4.731 10.484h1.752v-.967H4.731zm4.436 0h1.751v-.967H9.167zm4.433 0h1.753v-.967H13.6zm-8.869 2.608h1.752v-.967H4.731zm4.436 0h1.751v-.967H9.167zm4.433 0h1.753v-.967H13.6zm-8.869 2.609h1.752v-.967H4.731zm4.436 0h1.751v-.967H9.167zm4.433 0h1.753v-.967H13.6z"/><path d="M17.042 18.34H2.967a1.23 1.23 0 01-1.229-1.229v-9.15h16.533v9.15a1.23 1.23 0 01-1.229 1.23M2.967 3.85h1.281v1.013a.484.484 0 00.967 0V3.85h9.653v1.014a.484.484 0 00.967 0V3.85h1.207a1.23 1.23 0 011.23 1.23v1.913H1.737V5.08a1.23 1.23 0 011.23-1.229m14.074-.967h-1.207V1.576a.484.484 0 00-.967 0v1.307H5.215V1.576a.484.484 0 00-.967 0v1.307h-1.28A2.198 2.198 0 00.77 5.08v12.032c0 1.21.985 2.196 2.196 2.196h14.075a2.199 2.199 0 002.196-2.196V5.08a2.198 2.198 0 00-2.196-2.196"/></g></svg><svg width="24" height="22" viewBox="-4 -4 24 22" x="369" y="340" xmlns="http://www.w3.org/2000/svg"><g stroke="#FFF" stroke-width="1.2" fill="none" fill-rule="evenodd" opacity=".8"><path d="M12.372 4.57h.972M8 10.4a2.915 2.915 0 11.001-5.83 2.915 2.915 0 010 5.83z"/><path d="M13.83 2.628h-2.914L9.458 1.171H6.543L5.085 2.628H2.17a.975.975 0 00-.972.972v8.257c0 .534.439.972.972.972h11.66a.974.974 0 00.973-.972V3.6a.974.974 0 00-.972-.972z"/></g></svg><svg width="44" height="44" viewBox="-4 -4 44 44" x="88" y="211" xmlns="http://www.w3.org/2000/svg"><defs><path id="k" d="M0 0h22.05v13.703H0z"/><path id="m" d="M.39.644h5.656V6.3H.391z"/><path id="o" d="M.502.644h5.656V6.3H.502z"/></defs><g fill="none" fill-rule="evenodd"><g transform="translate(6.3 8.1)"><mask id="l" fill="#fff"><use xlink:href="#k"/></mask><path d="M5.293 4.296l2.306 7.864a.269.269 0 00.256.192h10.373a.268.268 0 00.256-.192l2.204-7.521a.266.266 0 00-.257-.343H5.294zm12.935 9.407H7.855a1.628 1.628 0 01-1.552-1.163L3.748 3.826l-.006-.022-.718-2.267a.266.266 0 00-.256-.187H.675a.675.675 0 010-1.35h2.093c.71 0 1.33.454 1.543 1.13l.575 1.816h15.546c.515 0 .987.236 1.296.649.308.412.401.93.256 1.424l-2.204 7.52c-.2.685-.84 1.164-1.552 1.164z" fill="gray" mask="url(#l)"/></g><g transform="translate(12.6 22.054)"><mask id="n" fill="#fff"><use xlink:href="#m"/></mask><path d="M3.218.644a2.828 2.828 0 100 5.655 2.828 2.828 0 000-5.655m0 1.35a1.48 1.48 0 010 2.956 1.48 1.48 0 010-2.956" fill="gray" mask="url(#n)"/></g><g transform="translate(18.9 22.054)"><mask id="p" fill="#fff"><use xlink:href="#o"/></mask><path d="M3.33.644a2.828 2.828 0 100 5.655 2.828 2.828 0 000-5.655m0 1.35a1.48 1.48 0 010 2.956 1.48 1.48 0 010-2.956" fill="gray" mask="url(#p)"/></g></g></svg><svg width="24" height="24" viewBox="-4 -4 24 24" x="264" y="211" xmlns="http://www.w3.org/2000/svg"><g fill="none" fill-rule="evenodd"><circle fill="#9EA8AA" cx="8" cy="8" r="8"/><path stroke="#FFF" stroke-width=".711" stroke-linecap="round" stroke-linejoin="round" d="M7.2 4.8l3.267 3.267L7.2 11.333"/></g></svg><svg width="24" height="24" viewBox="-4 -4 24 24" x="159" y="335" xmlns="http://www.w3.org/2000/svg"><g fill="none" fill-rule="evenodd"><circle fill="#303535" cx="8" cy="8" r="8"/><path stroke="#FFF" stroke-width=".8" stroke-linecap="round" stroke-linejoin="round" d="M7.2 4.8l3.267 3.267L7.2 11.333"/></g></svg><svg width="48" height="48" viewBox="-4 -4 48 48" x="189" y="104" xmlns="http://www.w3.org/2000/svg"><defs><path id="q" d="M0 34V0h35v34z"/></defs><g transform="translate(2 3)" fill="none" fill-rule="evenodd"><mask id="r" fill="#fff"><use xlink:href="#q"/></mask><path d="M7.31 29a4 4 0 118 0 4 4 0 01-8 0zm16 0a4 4 0 118 0 4 4 0 01-8 0zM5.093 8H34l-3.738 13H8.582L2.962 1H0m12.31 24.337l1-4" stroke="#FFF" stroke-width="2" stroke-linejoin="round" mask="url(#r)"/></g></svg><svg width="23" height="23" viewBox="-4 -4 23 23" x="251" y="335" xmlns="http://www.w3.org/2000/svg"><g fill="none" fill-rule="evenodd"><path d="M0 0h15v15H0z"/><path stroke="#333" stroke-linecap="round" d="M3 7.482l4 3.505L12.617 5"/></g></svg><svg width="32" height="32" viewBox="-4 -4 32 32" x="245" y="176" xmlns="http://www.w3.org/2000/svg"><g stroke="#d0cfd1" fill="none" fill-rule="evenodd"><circle stroke-width="1.2" fill="#FFF" cx="12" cy="12" r="11.4"/><path stroke-width="1.8" stroke-linecap="round" stroke-linejoin="round" d="M6 12.175l5.052 4.352L18 8.664"/></g></svg><svg width="32" height="32" viewBox="-4 -4 32 32" x="104" y="299" xmlns="http://www.w3.org/2000/svg"><g fill="none" fill-rule="evenodd"><circle fill="#4aaf70" cx="12" cy="12" r="12"/><path stroke="#FFF" stroke-width="1.8" stroke-linecap="round" stroke-linejoin="round" d="M6 12.175l5.052 4.352L18 8.664"/></g></svg><svg width="20" height="20" viewBox="-4 -4 20 20" x="93" y="83" xmlns="http://www.w3.org/2000/svg"><g fill="none" fill-rule="evenodd"><path stroke="#333" stroke-width="1.6" stroke-linecap="round" stroke-linejoin="round" d="M1.003 5.598L4.79 9.195l5.802-7.193"/><path d="M0 12V0h12v12z"/></g></svg><svg width="22" height="22" viewBox="-4 -4 22 22" x="22" y="363" xmlns="http://www.w3.org/2000/svg"><path d="M1.4 1.4l11.2 11.2m0-11.2L1.4 12.6" stroke="#9EA7AD" stroke-width="1.5" fill="none" stroke-linecap="round" stroke-linejoin="round"/></svg><svg width="28" height="28" viewBox="-4 -4 28 28" x="280" y="299" xmlns="http://www.w3.org/2000/svg"><g fill="none" fill-rule="evenodd"><path d="M0 20V0h20v20z"/><path d="M14.78 4.476H5.222c-.631.06-1.332.673-1.366 1.365v10.922l2.731-3.413h8.193c.643-.005 1.34-.715 1.365-1.365V5.84c-.004-.72-.644-1.367-1.365-1.365z" fill="gray"/></g></svg><svg width="139" height="83" viewBox="-4 -4 139 83" xmlns="http://www.w3.org/2000/svg"><defs><linearGradient x1="0%" y1="50%" x2="100%" y2="50%" id="t"><stop stop-color="#FFF" offset="0%"/><stop stop-color="#F6F6F6" offset="100%"/></linearGradient><path id="s" d="M.1 24.783L0 58.117l42.97-24.936L43.07 0z"/></defs><g fill="none" fill-rule="evenodd"><path fill="#FFF" d="M28.07 24.989l28.98 16.588 42.97-24.783L71.54 0zm0 33.324l28.98 16.641 42.97-24.935-28.48-16.642z"/><g transform="translate(56.951 16.794)"><mask id="u" fill="#fff"><use xlink:href="#s"/></mask><path fill="url(#t)" mask="url(#u)" d="M.1 24.783L0 58.117l42.97-24.936L43.07 0z"/></g><path fill="#F6F6F6" d="M28.144 58.238L57.05 74.954V41.577L28.07 24.99z"/><path fill="#4AAF70" d="M45.296 34.832l-6.233-3.549L82.11 6.243l6.552 3.847z"/><path fill="#117E4F" d="M45.058 56.367l-5.995-3.198V31.283l6.233 3.549z"/><path stroke="#4AAF70" stroke-width="2" stroke-linecap="round" stroke-linejoin="round" d="M122.805 23.093l2.099-.9 1.576 2.217 2.194-1.108L130 26.091"/><path d="M117.409 13.8a1.799 1.799 0 11-3.598 0 1.799 1.799 0 013.598 0zm.601 26.233a2.698 2.698 0 011.908-4.606" stroke="#117E4F" stroke-width="2" stroke-linecap="round" stroke-linejoin="round"/><path stroke="#4AAF70" stroke-width="2" stroke-linecap="round" stroke-linejoin="round" d="M10.18 11.047l2.25-.39 1.021 2.522 2.39-.57.644 3.02"/><path d="M3.598 26.39A1.799 1.799 0 110 26.392a1.799 1.799 0 013.598 0" fill="#117E4F"/><path stroke="#4AAF70" stroke-width="2" stroke-linecap="round" stroke-linejoin="round" d="M12.481 39.882l-5.25 2.698"/></g></svg><svg width="24" height="24" viewBox="-4 -4 24 24" x="183" y="335" xmlns="http://www.w3.org/2000/svg"><g transform="translate(3 2)" fill="none" fill-rule="evenodd"><rect stroke="#D2D8D9" x="2.5" y=".5" width="7" height="9" rx="1"/><path stroke="#FFF" fill="#FFF" d="M1.5 1.5h7v8h-7z"/><rect stroke="#D2D8D9" x=".5" y="2.5" width="7" height="9" rx="1"/></g></svg><svg width="22" height="22" viewBox="-4 -4 22 22" x="274" y="335" xmlns="http://www.w3.org/2000/svg"><path d="M13.737 6.031A.489.489 0 0014 5.604v-2.11a.478.478 0 00-.155-.35.55.55 0 00-.374-.144H9.882v.824c0 .272-.237.494-.529.494-.292 0-.53-.222-.53-.494V3H.53a.55.55 0 00-.374.145.478.478 0 00-.155.35v2.11c0 .175.1.338.263.426.451.239.73.685.73 1.17 0 .483-.28.93-.73 1.168A.489.489 0 000 8.796v2.11c0 .131.056.257.155.35a.55.55 0 00.374.144h8.295v-.824c0-.272.237-.494.529-.494.292 0 .53.222.53.494v.824h3.588a.55.55 0 00.374-.145.478.478 0 00.155-.35V8.797a.49.49 0 00-.263-.427 1.331 1.331 0 01-.73-1.169c0-.484.279-.93.73-1.169zM9.882 8.875c0 .272-.237.494-.529.494-.292 0-.53-.222-.53-.494V8.05c0-.273.238-.494.53-.494.292 0 .53.221.53.494v.824zm0-2.526c0 .273-.237.494-.529.494-.292 0-.53-.221-.53-.494v-.824c0-.272.238-.494.53-.494.292 0 .53.222.53.494v.824z" fill="#B5B4B6" fill-rule="evenodd"/></svg><svg width="48" height="48" viewBox="-4 -4 48 48" x="48" y="163" xmlns="http://www.w3.org/2000/svg"><defs><path id="v" d="M3 35V5h34v30z"/><path id="x" d="M3 35V5h34v30z"/></defs><g fill="none" fill-rule="evenodd"><mask id="w" fill="#fff"><use xlink:href="#v"/></mask><path stroke="#FFF" stroke-width="2" stroke-linejoin="round" stroke-dasharray="4,4" mask="url(#w)" d="M14 7v27"/><path stroke="#FFF" stroke-width="2" stroke-linejoin="round" mask="url(#w)" d="M19.521 25.065l9.458-9.63"/><mask id="y" fill="#fff"><use xlink:href="#x"/></mask><path d="M23 16a2 2 0 11-3.999.001A2 2 0 0123 16m7 8a2 2 0 11-3.999.001A2 2 0 0130 24" fill="#FFF" mask="url(#y)"/><path d="M4 6v8a6 6 0 110 12v8h32V6H4z" stroke="#FFF" stroke-width="2" stroke-linejoin="round" mask="url(#y)"/></g></svg><svg width="46" height="46" viewBox="-4 -4 46 46" x="96" y="163" xmlns="http://www.w3.org/2000/svg"><g fill="none" fill-rule="evenodd"><path d="M0 0h38v38H0z"/><path d="M26 12L12 26m0-14l14 14" stroke="#DDD"/></g></svg><svg width="26" height="26" viewBox="-4 -4 26 26" x="369" y="184" xmlns="http://www.w3.org/2000/svg"><g fill="none" fill-rule="evenodd"><circle cx="9" cy="9" r="9"/><path d="M6.172 6.172l5.656 5.656m-5.656 0l5.656-5.656" stroke="#80888A" stroke-linecap="round" stroke-linejoin="round"/></g></svg><svg width="26" height="26" viewBox="-4 -4 26 26" x="369" y="106" xmlns="http://www.w3.org/2000/svg"><g fill="none" fill-rule="evenodd"><circle stroke="#EEE" fill="#FFF" cx="9" cy="9" r="8.5"/><path d="M6.172 6.172l5.656 5.656m-5.656 0l5.656-5.656" stroke="#80888A" stroke-linecap="round" stroke-linejoin="round"/></g></svg><svg width="44" height="44" viewBox="-4 -4 44 44" x="176" y="211" xmlns="http://www.w3.org/2000/svg"><defs><path id="z" d="M0 0h21.897v17.463H0z"/></defs><g transform="translate(7.2 10.8)" fill="none" fill-rule="evenodd"><mask id="A" fill="#fff"><use xlink:href="#z"/></mask><path d="M17.928 10.569c-1.35 0-2.505.782-3.07 1.911h-4.699a3.432 3.432 0 00-.742-.991V1.574c0-.123.1-.225.225-.225h10.68c.123 0 .225.102.225.225v10.224a3.424 3.424 0 00-2.619-1.23m0 5.545a2.1 2.1 0 01-2.097-2.097 2.1 2.1 0 012.097-2.097 2.1 2.1 0 012.097 2.097 2.1 2.1 0 01-2.097 2.097m-10.84 0a2.1 2.1 0 01-2.097-2.097 2.1 2.1 0 012.097-2.097 2.1 2.1 0 012.097 2.097 2.1 2.1 0 01-2.097 2.097m-3.07-3.633H1.575a.226.226 0 01-.225-.225V8.663a3.83 3.83 0 013.825-3.825h2.892v5.89a3.388 3.388 0 00-.979-.16 3.434 3.434 0 00-3.07 1.912M20.322 0H9.642c-.869 0-1.575.707-1.575 1.574v1.914H5.175A5.18 5.18 0 000 8.663v3.592c0 .869.707 1.575 1.575 1.575h2.084c-.002.062-.018.122-.018.186a3.447 3.447 0 106.894 0c0-.064-.016-.124-.018-.186H14.5c-.004.062-.019.122-.019.186a3.447 3.447 0 006.894 0c0-.196-.026-.384-.058-.569.347-.287.58-.707.58-1.192V1.575c0-.868-.706-1.576-1.575-1.576" fill="gray" mask="url(#A)"/></g></svg><svg width="44" height="44" viewBox="-4 -4 44 44" x="245" y="88" xmlns="http://www.w3.org/2000/svg"><g fill="#FFF" fill-rule="evenodd"><path d="M18 1.5c-5.983 0-10.833 4.849-10.833 10.832 0 .031.005.062.005.093h-.005c0 .235.017.49.043.753.065.851.224 1.677.476 2.462 1.162 4.332 4.885 13.585 7.523 17.397a3.365 3.365 0 002.785 1.464 3.353 3.353 0 002.78-1.463c2.777-4.032 6.773-13.75 7.738-18.13.135-.55.23-1.115.277-1.695.026-.276.044-.542.044-.788h-.005c0-.031.005-.062.005-.093 0-5.983-4.85-10.833-10.833-10.833m0 1.688c5.03 0 9.124 4.081 9.145 9.105l-.003.063-.001.054-.002.241a9.829 9.829 0 01-.032.428 9.37 9.37 0 01-.243 1.468c-.905 4.105-4.842 13.706-7.48 17.535-.32.466-.827.732-1.39.732a1.677 1.677 0 01-1.397-.735c-2.566-3.707-6.186-12.793-7.282-16.875l-.01-.04-.012-.038a9.217 9.217 0 01-.403-2.108 6.964 6.964 0 01-.028-.36l-.003-.248a4.566 4.566 0 00-.004-.119C8.877 7.267 12.97 3.187 18 3.187"/><path d="M18 7.684a4.603 4.603 0 100 9.207 4.603 4.603 0 000-9.207m0 1.688a2.92 2.92 0 012.916 2.916A2.92 2.92 0 0118 15.205a2.92 2.92 0 01-2.916-2.917A2.919 2.919 0 0118 9.372"/></g></svg><svg width="44" height="44" viewBox="-4 -4 44 44" x="289" y="88" xmlns="http://www.w3.org/2000/svg"><g fill="#FFF" fill-rule="evenodd"><path d="M31.96 25.618l-12.366 5.27V16.166l12.366-5.272v14.725zM5.542 10.893l12.365 5.272v14.724l-12.365-5.27V10.892zm18.465-5.146l-12.761 5.744-5.388-2.297 12.893-5.827 5.256 2.38zM18.75 14.69l-5.395-2.3 12.7-5.716L31.63 9.2l-12.88 5.49zm14.96-6.401L18.75 1.514 3.766 8.289l.089.197v18.246l14.896 6.352 14.897-6.352V8.427l.063-.138z"/><path d="M24.68 17.072l-3.798 1.716v1.793l3.799-1.716zm3.334 3.428v-1.635l-7.132 3.221v1.635z"/></g></svg><svg width="28" height="28" viewBox="-4 -4 28 28" x="308" y="299" xmlns="http://www.w3.org/2000/svg"><g fill="none" fill-rule="evenodd"><g fill="#CCC"><path d="M8.706 7.173L3.188 4.53a.614.614 0 00-.879.555v9.48c0 .236.135.452.35.554l6.047 2.897a2.99 2.99 0 002.59 0l6.047-2.897a.615.615 0 00.348-.554v-9.48a.614.614 0 00-.878-.555l-5.518 2.644a2.997 2.997 0 01-2.59 0"/><path d="M9.944 6.31a2.73 2.73 0 01-1.158-.257l-5.364-2.49a.752.752 0 01-.366-.996.754.754 0 01.995-.365l5.367 2.49c.338.158.721.157 1.057-.002l5.279-2.486a.75.75 0 01.639 1.357l-5.278 2.486a2.736 2.736 0 01-1.171.264"/></g><path d="M0 0h20v20H0z"/></g></svg><svg width="22" height="22" viewBox="-4 -4 22 22" x="340" y="335" xmlns="http://www.w3.org/2000/svg"><g fill="none" fill-rule="evenodd"><circle fill="#B5B4B6" cx="7" cy="7" r="7"/><path d="M10.322 6.343a.319.319 0 01-.087.314l-3 2.914a.338.338 0 01-.472 0l-3-2.914a.319.319 0 010-.46.338.338 0 01.474 0l2.43 2.363V1.949c0-.156.148-.282.332-.282.184 0 .334.126.334.282v6.61l2.43-2.361a.34.34 0 01.252-.095l.07.01a.33.33 0 01.237.23zm.37 4.324H3.308c-.17 0-.308-.15-.308-.334 0-.184.138-.333.308-.333h7.384c.17 0 .308.15.308.333 0 .184-.138.334-.308.334z" fill="#FFF"/></g></svg><svg width="27" height="26" viewBox="-4 -4 27 26" x="369" y="27" xmlns="http://www.w3.org/2000/svg"><defs><path id="B" d="M0 0h17.714v18H0z"/></defs><g transform="translate(.413)" fill="none" fill-rule="evenodd"><mask id="C" fill="#fff"><use xlink:href="#B"/></mask><path stroke="#333" stroke-width="1.125" stroke-linecap="round" stroke-linejoin="round" mask="url(#C)" transform="rotate(90 9.226 9)" d="M7.601 5.802L10.851 9l-3.25 3.198"/><path stroke="#333" stroke-width="1.125" stroke-linecap="round" stroke-linejoin="round" mask="url(#C)" d="M9.226 10.625V4.419m-4.182 8.48h8.365"/></g></svg><svg width="22" height="22" viewBox="-4 -4 22 22" y="363" xmlns="http://www.w3.org/2000/svg"><defs><path id="D" d="M0 0h14v14H0z"/></defs><g fill="none" fill-rule="evenodd"><mask id="E" fill="#fff"><use xlink:href="#D"/></mask><path stroke="#979797" stroke-width="1.125" stroke-linecap="round" stroke-linejoin="round" mask="url(#E)" transform="rotate(90 7 7)" d="M5 3l4 4-4 4"/></g></svg><svg width="22" height="22" viewBox="-4 -4 22 22" x="318" y="335" xmlns="http://www.w3.org/2000/svg"><defs><path id="F" d="M0 0h14v14H0z"/></defs><g fill="none" fill-rule="evenodd"><mask id="G" fill="#fff"><use xlink:href="#F"/></mask><path stroke="#333" stroke-width="1.125" stroke-linecap="round" stroke-linejoin="round" mask="url(#G)" transform="rotate(90 7 7)" d="M5 3l4 4-4 4"/></g></svg><svg width="44" height="44" viewBox="-4 -4 44 44" x="289" xmlns="http://www.w3.org/2000/svg"><g transform="translate(2 .961)" fill="none" fill-rule="evenodd"><path d="M3 12.039h26v12a6 6 0 01-6 6H9a6 6 0 01-6-6v-12z" fill="#FFF"/><path d="M28.25 12.789v11.25c0 1.45-.588 2.762-1.538 3.712A5.234 5.234 0 0123 29.29h0H9a5.234 5.234 0 01-3.712-1.538A5.234 5.234 0 013.75 24.04h0V12.79h24.5z" stroke="#303535" stroke-width="1.5"/><path fill="#4AAF70" d="M13 13.039h6v16h-6z"/><path d="M22.3 3.034c.43-.262.925-.326 1.38-.217a1.818 1.818 0 011.395 1.774h0v3.144a2.25 2.25 0 01-.848 1.76h0l-4.393 3.496c-.41.326-.915.456-1.398.4a1.9 1.9 0 01-1.686-1.888h0V7.69c0-.783.408-1.51 1.076-1.92h0zm-12.775 0a1.818 1.818 0 00-1.379-.217A1.818 1.818 0 006.75 4.591h0v3.144c0 .685.313 1.333.849 1.76h0l4.393 3.496c.41.326.914.456 1.398.4a1.9 1.9 0 001.686-1.888h0V7.69a2.25 2.25 0 00-1.077-1.92h0z" stroke="#303535" stroke-width="1.5" fill="#4AAF70"/><rect stroke="#303535" stroke-width="1.5" fill="#FFF" x=".75" y="7.789" width="30.5" height="6.5" rx="3"/><path fill="#4AAF70" d="M13 8.039h6v6h-6z"/><rect stroke="#303535" stroke-width="1.5" x=".75" y="7.789" width="30.5" height="6.5" rx="3"/><path stroke="#303535" stroke-width="1.5" d="M13 7.548v21.533m6-21.533v21.533"/></g></svg><svg width="43" height="43" viewBox="-4 -4 43 43" x="87" y="255" xmlns="http://www.w3.org/2000/svg"><path d="M19.266 28.194V17.5h2.948l.39-3.685h-3.338l.005-1.846c0-.96.091-1.476 1.47-1.476h1.843V6.806h-2.949c-3.542 0-4.788 1.788-4.788 4.795v2.213h-2.208V17.5h2.208v10.694h4.42z" fill="#646465" fill-rule="evenodd"/></svg><svg width="28" height="28" viewBox="-4 -4 28 28" x="168" y="299" xmlns="http://www.w3.org/2000/svg"><g fill="none" fill-rule="evenodd"><path d="M0 20V0h20v20z"/><path d="M16.005 6.686l-.123-.246c-.367-1.105-1.47-1.965-2.818-1.965-2.083 0-2.819 1.474-3.064 1.965-.245-.491-.98-1.965-3.063-1.965-1.348 0-2.451.86-2.819 1.965 0 0-.122.123-.122.246C3.179 9.223 5.18 12.17 10 15.527c4.82-3.356 6.822-6.304 6.005-8.841" fill="#FE5A5A"/></g></svg><svg width="26" height="26" viewBox="-4 -4 26 26" x="369" y="262" xmlns="http://www.w3.org/2000/svg"><defs><path id="H" d="M0 0h18v18H0z"/></defs><g fill="none" fill-rule="evenodd"><mask id="I" fill="#fff"><use xlink:href="#H"/></mask><path d="M9.5 3S5.48 6.471 3.232 8.35A.65.65 0 003.65 9.5h1.3v4.55c0 .36.29.65.65.65h1.95a.65.65 0 00.65-.65v-2.6h2.6v2.6c0 .359.29.65.65.65h1.95c.36 0 .65-.29.65-.65V9.5h1.3c.36 0 .65-.29.65-.65a.64.64 0 00-.249-.5C13.52 6.472 9.5 3 9.5 3z" fill="#979797" fill-rule="nonzero" mask="url(#I)"/></g></svg><svg width="43" height="43" viewBox="-4 -4 43 43" x="44" y="255" xmlns="http://www.w3.org/2000/svg"><g transform="translate(6.806 6.806)" fill="#646465"><path d="M15.34 1.92a4.145 4.145 0 014.128 4.129v9.183a4.145 4.145 0 01-4.128 4.128H6.049a4.145 4.145 0 01-4.128-4.128V6.05a4.145 4.145 0 014.128-4.128h9.29m0-1.92H6.05C2.722 0 0 2.726 0 6.05v9.182c0 3.327 2.725 6.05 6.049 6.05h9.29c3.328 0 6.05-2.726 6.05-6.05V6.05c0-3.327-2.722-6.049-6.05-6.049z"/><path d="M10.694 7.056a3.584 3.584 0 110 7.169 3.584 3.584 0 010-7.169m0-1.92a5.505 5.505 0 100 11.01 5.505 5.505 0 000-11.01z"/><circle cx="16.319" cy="4.894" r="1.305"/></g></svg><svg width="34" height="34" viewBox="-4 -4 34 34" x="289" y="220" xmlns="http://www.w3.org/2000/svg"><g fill="none" fill-rule="evenodd"><path stroke="#9EA8AA" d="M24 2L3 23"/><path d="M0 0h26v26H0z"/></g></svg><svg width="36" height="36" viewBox="-4 -4 36 36" x="333" y="216" xmlns="http://www.w3.org/2000/svg"><g fill="none" fill-rule="evenodd"><path d="M5.19 5.111h7.386v7.407H5.19zm0 10.37h7.386v7.407H5.19zm10.341-10.37h7.387v7.407h-7.387zm0 10.37h7.387v7.407h-7.387z" fill="#DDD"/><path d="M0 0h28v28H0z"/></g></svg><svg width="36" height="36" viewBox="-4 -4 36 36" x="333" y="180" xmlns="http://www.w3.org/2000/svg"><g fill="none" fill-rule="evenodd"><path d="M5.19 5.111h7.386v7.407H5.19zm0 10.37h7.386v7.407H5.19zm10.341-10.37h7.387v7.407h-7.387zm0 10.37h7.387v7.407h-7.387z" fill="#FFF"/><path d="M0 0h28v28H0z"/></g></svg><svg width="36" height="36" viewBox="-4 -4 36 36" x="333" y="36" xmlns="http://www.w3.org/2000/svg"><g fill="none" fill-rule="evenodd"><path d="M5.19 5.111h4.856v4.871H5.19zm0 6.571h4.856v4.871H5.19zm0 6.57h4.856v4.871H5.19zm6.8-13.141h10.928v4.871H11.99zm0 6.571h10.928v4.871H11.99zm0 6.57h10.928v4.871H11.99z" fill="#DDD"/><path d="M0 0h28v28H0z"/></g></svg><svg width="36" height="36" viewBox="-4 -4 36 36" y="299" xmlns="http://www.w3.org/2000/svg"><g fill="none" fill-rule="evenodd"><path d="M5.19 5.111h4.856v4.871H5.19zm0 6.571h4.856v4.871H5.19zm0 6.57h4.856v4.871H5.19zm6.8-13.141h10.928v4.871H11.99zm0 6.571h10.928v4.871H11.99zm0 6.57h10.928v4.871H11.99z" fill="#FFF"/><path d="M0 0h28v28H0z"/></g></svg><svg width="36" height="36" viewBox="-4 -4 36 36" x="333" y="252" xmlns="http://www.w3.org/2000/svg"><g fill="none" fill-rule="evenodd"><path d="M5.19 5.111h4.856v4.871H5.19zm0 6.571h4.856v4.871H5.19zm0 6.57h4.856v4.871H5.19zm6.648-13.141h4.857v4.871h-4.857zm0 6.571h4.857v4.871h-4.857zm0 6.57h4.857v4.871h-4.857zm6.648-13.141h4.857v4.871h-4.857zm0 6.571h4.857v4.871h-4.857zm0 6.57h4.857v4.871h-4.857z" fill="#DDD"/><path d="M0 0h28v28H0z"/></g></svg><svg width="36" height="36" viewBox="-4 -4 36 36" x="333" y="144" xmlns="http://www.w3.org/2000/svg"><g fill="none" fill-rule="evenodd"><path d="M5.19 5.111h4.856v4.871H5.19zm0 6.571h4.856v4.871H5.19zm0 6.57h4.856v4.871H5.19zm6.648-13.141h4.857v4.871h-4.857zm0 6.571h4.857v4.871h-4.857zm0 6.57h4.857v4.871h-4.857zm6.648-13.141h4.857v4.871h-4.857zm0 6.571h4.857v4.871h-4.857zm0 6.57h4.857v4.871h-4.857z" fill="#FFF"/><path d="M0 0h28v28H0z"/></g></svg><svg width="44" height="44" viewBox="-4 -4 44 44" x="289" y="132" xmlns="http://www.w3.org/2000/svg"><g fill="none" fill-rule="evenodd"><path d="M27.259 12.712h-.004c0-.028.004-.055.004-.082 0-5.319-4.311-9.63-9.629-9.63A9.63 9.63 0 008 12.63c0 .027.004.054.004.082H8c0 .21.016.436.038.669.059.757.2 1.491.423 2.189 1.034 3.85 4.343 12.076 6.688 15.465 1.199 1.732 3.751 1.735 4.946 0 2.469-3.584 6.021-12.222 6.879-16.116a9.57 9.57 0 00.245-1.507 7.27 7.27 0 00.04-.7" fill="#FFF"/><path d="M27.259 12.712h-.004c0-.028.004-.055.004-.082 0-5.319-4.311-9.63-9.629-9.63A9.63 9.63 0 008 12.63c0 .027.004.054.004.082H8c0 .21.016.436.038.669.059.757.2 1.491.423 2.189 1.034 3.85 4.343 12.076 6.688 15.465 1.199 1.732 3.751 1.735 4.946 0 2.469-3.584 6.021-12.222 6.879-16.116a9.57 9.57 0 00.245-1.507 7.27 7.27 0 00.04-.7" stroke="#303535" stroke-width="1.5"/><path d="M22.094 12.59a4.463 4.463 0 11-8.927 0 4.463 4.463 0 018.927 0" stroke="#303535" stroke-width="1.5" fill="#4AAF70"/></g></svg><svg width="40" height="40" viewBox="-4 -4 40 40" x="173" y="255" xmlns="http://www.w3.org/2000/svg"><defs><circle id="J" cx="16" cy="16" r="16"/></defs><g fill="none" fill-rule="evenodd"><mask id="K" fill="#fff"><use xlink:href="#J"/></mask><use fill="#D8D8D8" xlink:href="#J"/><circle fill="#FFF" mask="url(#K)" cx="16" cy="12" r="7"/><circle fill="#FFF" mask="url(#K)" cx="16" cy="40" r="18"/></g></svg><svg width="40" height="40" viewBox="-4 -4 40 40" x="213" y="255" xmlns="http://www.w3.org/2000/svg"><defs><path id="L" d="M0 .977h21.97v1.5H0z"/><path id="N" d="M0 .738h21.97v1.5H0z"/><path id="P" d="M0 .5h21.97V2H0z"/></defs><g fill="none" fill-rule="evenodd"><g transform="translate(5 7)"><mask id="M" fill="#fff"><use xlink:href="#L"/></mask><path d="M21.22 2.477H.75a.75.75 0 010-1.5h20.47a.75.75 0 010 1.5" fill="#FFF" mask="url(#M)"/></g><g transform="translate(5 15)"><mask id="O" fill="#fff"><use xlink:href="#N"/></mask><path d="M21.22 2.238H.75a.75.75 0 010-1.5h20.47a.75.75 0 010 1.5" fill="#FFF" mask="url(#O)"/></g><g transform="translate(5 23)"><mask id="Q" fill="#fff"><use xlink:href="#P"/></mask><path d="M21.22 2H.75a.75.75 0 010-1.5h20.47a.75.75 0 010 1.5" fill="#FFF" mask="url(#Q)"/></g></g></svg><svg width="32" height="32" viewBox="-4 -4 32 32" x="72" y="299" xmlns="http://www.w3.org/2000/svg"><path d="M3 3l18 18m0-18L3 21" stroke="#FFF" stroke-linecap="round" stroke-linejoin="round" stroke-width="1.5" fill="none"/></svg><svg width="36" height="36" viewBox="-4 -4 36 36" x="36" y="299" xmlns="http://www.w3.org/2000/svg"><g fill="none" fill-rule="evenodd"><path d="M0 0h28v28H0z"/><path stroke="#606060" d="M9 14h10"/></g></svg><svg width="22" height="22" viewBox="-4 -4 22 22" x="44" y="363" xmlns="http://www.w3.org/2000/svg"><path d="M7.272 6.144c-1.768-.458-2.336-.929-2.336-1.668 0-.848.782-1.443 2.103-1.443 1.386 0 1.9.661 1.947 1.634h1.721c-.05-1.342-.872-2.563-2.5-2.964V0H5.87v1.68c-1.51.33-2.726 1.303-2.726 2.808 0 1.796 1.492 2.69 3.661 3.212 1.951.467 2.337 1.147 2.337 1.878 0 .533-.378 1.389-2.103 1.389-1.605 0-2.24-.72-2.321-1.634H3c.097 1.704 1.37 2.656 2.87 2.98V14h2.337v-1.672c1.515-.292 2.726-1.167 2.726-2.765 0-2.201-1.892-2.956-3.66-3.419z" fill="#B5B4B6" fill-rule="evenodd"/></svg><svg width="20" height="20" viewBox="-4 -4 20 20" x="113" y="83" xmlns="http://www.w3.org/2000/svg"/><svg width="48" height="48" viewBox="-4 -4 48 48" y="163" xmlns="http://www.w3.org/2000/svg"><defs><path id="R" d="M.002 33.998V.002h39.996v33.996z"/></defs><g transform="translate(0 3)" fill="none" fill-rule="evenodd"><mask id="S" fill="#fff"><use xlink:href="#R"/></mask><path d="M37.854 13.027l-1.974-.336c-.621-2.383-1.906-4.537-3.675-6.298-.114-1.966.404-3.482.866-4.41.241-.482-.162-1.043-.69-.982-2.3.264-3.685 1.352-4.493 2.346a17.53 17.53 0 00-7.638-1.723C11.386 1.624 4.2 8.038 4.2 15.95c0 3.54 1.442 6.779 3.827 9.278.829.868 1.446 1.913 1.747 3.072l.927 3.563c.108.657.666 1.14 1.32 1.14h3.548a1.35 1.35 0 001.338-1.364l.093-.93a.683.683 0 01.784-.605 18.028 18.028 0 004.298.076.684.684 0 01.76.606l.084.853c0 .753.599 1.364 1.337 1.364h3.55c.653 0 1.21-.483 1.318-1.14l.744-2.858c.315-1.207 1.011-2.265 1.93-3.115 1.787-1.655 3.132-3.694 3.865-5.965l2.186-.372a1.362 1.362 0 001.134-1.341V14.37c0-.664-.48-1.231-1.136-1.343 0 0 0 0 0 0z" stroke="#FFF" stroke-width="1.85" stroke-linejoin="round" mask="url(#S)"/><path d="M29.455 12.335c0 .917-.747 1.662-1.67 1.662-.922 0-1.67-.745-1.67-1.662M4.051 15.48a1.648 1.648 0 01-2.265.525 1.632 1.632 0 01-.528-2.255m12.829-6.464a10.66 10.66 0 015.672-1.623c1.179 0 2.314.19 3.374.542" stroke="#FFF" stroke-width="1.85" stroke-linejoin="round" mask="url(#S)"/></g></svg><svg width="40" height="40" viewBox="-4 -4 40 40" x="253" y="255" xmlns="http://www.w3.org/2000/svg"><defs><path id="T" d="M0 .977h21.97v1.5H0z"/><path id="V" d="M0 .738h21.97v1.5H0z"/><path id="X" d="M0 .5h21.97V2H0z"/></defs><g fill="none" fill-rule="evenodd"><g transform="translate(5 7)"><mask id="U" fill="#fff"><use xlink:href="#T"/></mask><path d="M21.22 2.477H.75a.75.75 0 010-1.5h20.47a.75.75 0 010 1.5" fill="gray" mask="url(#U)"/></g><g transform="translate(5 15)"><mask id="W" fill="#fff"><use xlink:href="#V"/></mask><path d="M21.22 2.238H.75a.75.75 0 010-1.5h20.47a.75.75 0 010 1.5" fill="gray" mask="url(#W)"/></g><g transform="translate(5 23)"><mask id="Y" fill="#fff"><use xlink:href="#X"/></mask><path d="M21.22 2H.75a.75.75 0 010-1.5h20.47a.75.75 0 010 1.5" fill="gray" mask="url(#Y)"/></g></g></svg><svg width="22" height="23" viewBox="-4 -4 22 23" x="207" y="335" xmlns="http://www.w3.org/2000/svg"><g fill="none" fill-rule="evenodd"><path d="M6.835 13.444c.921 0 1.692-.588 1.98-1.41h-3.96a2.094 2.094 0 001.98 1.41zM10.98 7.89V5.768a4.146 4.146 0 00-3.043-3.99 1.176 1.176 0 00-1.097-.743c-.5 0-.923.307-1.096.744a4.146 4.146 0 00-3.042 3.99V7.89L1.692 8.9a.587.587 0 00-.173.419v1.183c0 .327.264.592.591.592h9.46a.591.591 0 00.592-.592V9.319a.587.587 0 00-.174-.419L10.98 7.89z" fill="#FFF"/><path d="M0 14.24v-14h14v14z"/></g></svg><svg width="44" height="44" viewBox="-4 -4 44 44" x="132" y="211" xmlns="http://www.w3.org/2000/svg"><g fill="none" fill-rule="evenodd"><path d="M9.818 31.361l-3.16-3.02a2 2 0 01-.033-2.86l1.282-1.282 2.612-2.732a2 2 0 011.446-.618h6.59c.75.305 1.125.843 1.125 1.614 0 .77-.375 1.277-1.124 1.52H15.68" fill="#FFF"/><path d="M15.698 24h7.033l4.235-4.139c.901-.32 1.632-.214 2.194.316s.711 1.248.448 2.153l-5.375 5.375a2 2 0 01-1.414.586h-7.64l-2.835 2.81a2 2 0 01-2.79.025l-2.912-2.784" fill="#FFF"/><path d="M9.818 31.361l-3.16-3.02a2 2 0 01-.033-2.86l1.282-1.282h0l2.612-2.732a2 2 0 011.446-.618h6.59c.75.305 1.125.843 1.125 1.614 0 .77-.375 1.277-1.124 1.52H15.68" stroke="#303535" stroke-width="1.5" stroke-linecap="round" stroke-linejoin="round"/><path d="M15.698 24h7.033l4.235-4.139c.901-.32 1.632-.214 2.194.316s.711 1.248.448 2.153l-5.375 5.375a2 2 0 01-1.414.586h-7.64 0l-2.835 2.81a2 2 0 01-2.79.025l-2.912-2.784h0" stroke="#303535" stroke-width="1.5" stroke-linecap="round" stroke-linejoin="round"/><g stroke="#303535" stroke-width="1.5"><path d="M24.565 4.47c.61-.12 1.21.018 1.688.339.478.32.834.824.954 1.433h0l.043 7.32a2.246 2.246 0 01-1.815 2.207h0l-7.437 1.467-7.424-1.43a2.246 2.246 0 01-1.824-2.21h0V6.708c0-.621.252-1.184.659-1.591.407-.407.97-.659 1.591-.659h0l7.002 1.307z" fill="#4AAF70"/><path stroke-linecap="round" d="M18.021 6.319v10.663"/></g></g></svg><svg width="27" height="26" viewBox="-4 -4 27 26" x="28" y="335" xmlns="http://www.w3.org/2000/svg"><g fill="none" fill-rule="evenodd"><path d="M.813 0h18v18h-18z"/><path d="M15.359 6.982l-5.21-3.862A.633.633 0 009.792 3a.643.643 0 00-.646.64v1.228c-2.938.35-5.335 2.83-5.335 5.832 0 1.606.273 3.056 1.367 4.113.51.492 1.327-.068 1.102-.738a3.182 3.182 0 01-.18-.996c0-1.86 1.167-3.299 3.046-3.298v2.129c0 .353.29.64.646.64a.635.635 0 00.357-.121l5.235-3.84a.979.979 0 00.428-.795.98.98 0 00-.454-.812" fill="#BE1D27"/></g></svg><svg width="44" height="44" viewBox="-4 -4 44 44" x="188" y="163" xmlns="http://www.w3.org/2000/svg"><defs><path id="Z" d="M0 36h36V0H0z"/></defs><g fill="none" fill-rule="evenodd"><path d="M23.716 2.25H8.637a2.25 2.25 0 00-2.25 2.25v26.999a2.25 2.25 0 002.25 2.25l19.9.001a2.25 2.25 0 002.25-2.25V9.318L23.715 2.25zm-.699 1.688l6.082 6.079V31.5a.556.556 0 01-.165.397.558.558 0 01-.398.166L8.637 32.06a.563.563 0 01-.562-.562V4.5c0-.31.252-.563.562-.563h14.38z" fill="#FFF"/><path d="M29.94 10.162h-5.098a1.97 1.97 0 01-1.97-1.97V3.236h1.688v4.958c0 .155.126.281.282.281h5.098v1.688z" fill="#FFF"/><mask id="aa" fill="#fff"><use xlink:href="#Z"/></mask><path fill="#FFF" mask="url(#aa)" d="M10.837 20.262H20.94v-1.687H10.837zm0 4.956h7.067V23.53h-7.067zm0-9.912h13.189v-1.688H10.837z"/></g></svg><svg width="48" height="48" viewBox="-4 -4 48 48" x="189" y="56" xmlns="http://www.w3.org/2000/svg"><defs><path id="ab" d="M0 38.182V0h39.636v38.182z"/></defs><g fill="none" fill-rule="evenodd"><g transform="translate(0 1)"><mask id="ac" fill="#fff"><use xlink:href="#ab"/></mask><path d="M1 9.272l18.82 8.25 18.818-8.25M19.82 1.09L1 9.272V28.91l18.82 8.181 18.818-8.18V9.271L19.82 1.09z" stroke="#FFF" stroke-width="2" mask="url(#ac)"/></g><path stroke="#FFF" stroke-width="2" d="M8.666 13.767l19.338-8.398"/><path fill="#FFF" d="M23.096 28.453l-.004-1.688 9.822-4.146v1.695zm0-4.254l-.004-1.692 5.17-2.206v1.698z"/></g></svg><svg width="44" height="44" viewBox="-4 -4 44 44" x="245" y="132" xmlns="http://www.w3.org/2000/svg"><g fill="#FFF" fill-rule="evenodd"><path d="M18 2.25C9.302 2.25 2.25 9.302 2.25 18S9.302 33.75 18 33.75 33.75 26.698 33.75 18 26.698 2.25 18 2.25m0 1.688c7.755 0 14.063 6.307 14.063 14.062 0 7.755-6.308 14.063-14.063 14.063-7.755 0-14.063-6.308-14.063-14.063 0-7.755 6.308-14.063 14.063-14.063"/><path d="M21.143 20.663h-.099l-.427-1.865h.912l-.386 1.865zm-3.575-3.462l.388-1.707h.093l.389 1.707h-.87zm-2.607 3.45h-.104l-.383-1.853h.913l-.426 1.853zm10.454-3.45h-1.442l1.226-5.168h-2.273l-1.067 5.168h-1.607l-1.183-5.168h-2.132l-1.185 5.168h-1.606l-1.067-5.168h-2.278l1.226 5.168h-1.442v1.597h1.821l1.227 5.17h2.395l1.177-5.17h1.597l1.177 5.17h2.388l1.226-5.17h1.822V17.2z"/></g></svg><svg width="26" height="26" viewBox="-4 -4 26 26" x="369" y="210" xmlns="http://www.w3.org/2000/svg"><g fill="none" fill-rule="evenodd"><path d="M0 0h18v18H0z"/><path d="M16 13.057c0 .179-.033.412-.1.7a3.95 3.95 0 01-.208.682c-.14.331-.544.683-1.213 1.054-.623.338-1.24.507-1.85.507-.179 0-.353-.012-.522-.035a4.298 4.298 0 01-.571-.124 8.106 8.106 0 01-.473-.144 39.158 39.158 0 01-.552-.204c-.265-.1-.427-.16-.487-.18a9.005 9.005 0 01-1.74-.824c-.848-.524-1.725-1.238-2.63-2.143-.905-.905-1.619-1.782-2.143-2.63a9.005 9.005 0 01-.825-1.74c-.02-.06-.08-.222-.179-.487-.1-.266-.167-.45-.204-.552a8.106 8.106 0 01-.144-.473 4.298 4.298 0 01-.124-.571A3.836 3.836 0 012 5.37c0-.61.169-1.227.507-1.85.371-.67.723-1.074 1.054-1.213a3.95 3.95 0 01.681-.209 3.3 3.3 0 01.701-.099c.093 0 .163.01.209.03.12.04.295.291.527.756.073.125.172.304.298.536.126.232.242.443.348.632.106.189.21.366.309.532.02.026.077.11.174.248.096.14.167.257.213.353a.64.64 0 01.07.284c0 .132-.095.298-.283.497a4.847 4.847 0 01-.617.547 5.988 5.988 0 00-.616.527c-.19.185-.284.338-.284.457 0 .06.017.134.05.224s.061.157.084.204c.024.046.07.126.14.238.07.113.107.176.114.19.504.907 1.08 1.686 1.73 2.336.65.65 1.429 1.226 2.337 1.73l.189.114c.112.07.192.116.238.14.047.023.115.05.204.084a.68.68 0 00.224.05c.12 0 .272-.095.457-.284.186-.188.362-.394.527-.616.166-.222.348-.428.547-.617.199-.188.365-.283.497-.283.093 0 .188.023.284.07.096.046.213.117.353.213l.248.174c.166.1.343.203.532.309.19.106.4.222.632.348.232.126.41.225.536.298.465.232.716.408.756.527.02.046.03.116.03.209z" fill="#D2D8D9"/></g></svg><svg width="36" height="36" viewBox="-4 -4 36 36" x="333" xmlns="http://www.w3.org/2000/svg"><g fill="none" fill-rule="evenodd"><path d="M0 0h28v28H0z"/><path stroke="#606060" d="M9 14h10m-5 5V9"/></g></svg><svg width="44" height="44" viewBox="-4 -4 44 44" y="255" xmlns="http://www.w3.org/2000/svg"><path d="M29.664 7.001a16.398 16.398 0 00-1.683-1.547l-1.05 1.321c.528.42 1.034.887 1.507 1.386l1.226-1.16zm2.629 3.733a15.977 15.977 0 00-1.181-1.96l-1.38.974c.394.559.75 1.148 1.056 1.751l1.505-.765zm-.19 4.632l1.66-.31a16.085 16.085 0 00-.58-2.213l-1.598.542c.218.643.393 1.309.518 1.981M26.095 4.16a15.915 15.915 0 00-2.051-1.012l-.638 1.561c.632.259 1.25.563 1.836.907l.853-1.457zm7.855 15.456a16.357 16.357 0 00.067-2.287l-1.685.07a14.302 14.302 0 01-.6 4.73c-.019.058-.033.12-.052.18-1.69 5.348-6.43 9.351-12.172 9.954-.056.006-.112.008-.17.012a14.067 14.067 0 01-2.798-.005l-.027-.005a14.25 14.25 0 01-1.269-.193l-.288-.061a14.26 14.26 0 01-2.522-.792l-.043-.02a14.675 14.675 0 01-1.144-.552l-.144-.077a14.457 14.457 0 01-3.192-2.389l-.084-.082a14.397 14.397 0 01-1.709-2.073c-.009-.012-.016-.026-.024-.038a14.37 14.37 0 01-.674-1.107l-.047-.086a14.284 14.284 0 01-1.04-2.449l-.066-.223a14.108 14.108 0 01-.283-1.097c-.014-.068-.032-.137-.046-.207A14.3 14.3 0 013.656 18c0-1.441.22-2.833.616-4.146l.045-.156a14.363 14.363 0 014.146-6.382c.314-.28.641-.547.98-.8a14.255 14.255 0 017.042-2.778c.064-.006.13-.009.195-.014.435-.04.874-.068 1.32-.068V1.968c-.225 0-.444.025-.666.035V1.98c-.265.012-.527.037-.79.061-.08.008-.162.01-.243.02-.418.043-.832.1-1.239.175l.002.013a15.68 15.68 0 00-2.211.582l-.006-.017c-.717.243-1.428.542-2.11.89l.009.018c-.682.347-1.335.739-1.956 1.177l-.01-.016c-.625.44-1.22.927-1.772 1.445l.016.017a16.1 16.1 0 00-1.551 1.679l-.014-.011a16.4 16.4 0 00-1.295 1.884l.02.011a15.853 15.853 0 00-1.023 2.047l-.011-.005a15.25 15.25 0 00-.44 1.233c-.02.068-.037.137-.059.205-.073.245-.15.49-.211.739l.02.004a16.076 16.076 0 00-.41 2.25 16.246 16.246 0 00-.082 1.614v.006c0 .223.004.445.014.665h.02c.033.772.11 1.53.249 2.27l-.014.004c.013.069.032.136.045.204.017.085.038.168.056.252.088.402.19.8.309 1.193.028.094.054.187.084.28.03.095.053.192.084.285l.017-.007c.248.728.546 1.431.891 2.107l-.019.01c.056.108.12.213.179.32l.065.12c.234.423.484.836.753 1.236l.015.023c.057.085.11.175.168.259l.017-.012c.44.624.925 1.212 1.448 1.767l-.017.016c.098.103.204.199.305.3l.079.079c.347.344.709.674 1.083.984l.014.011c.068.057.132.119.201.174l.011-.014c.595.475 1.228.902 1.887 1.29l-.011.02c.127.075.26.14.39.21l.164.089c.41.22.828.423 1.254.604.025.011.052.025.08.036.055.024.107.052.163.074l.005-.012c.701.287 1.43.515 2.176.7l-.005.021c.148.036.299.06.447.093.12.026.24.053.362.077.45.087.903.16 1.357.207.028.003.055.009.083.011A16.299 16.299 0 0018 34.03c.226 0 .445-.023.668-.033v.021c.269-.011.536-.037.805-.062.073-.007.146-.009.22-.017.42-.044.838-.1 1.25-.178l-.003-.012a16.056 16.056 0 002.21-.582l.005.017a15.861 15.861 0 002.11-.89l-.008-.018c.682-.348 1.335-.74 1.956-1.177l.013.016c.62-.438 1.217-.925 1.77-1.446l-.018-.018a16.09 16.09 0 001.552-1.678l.014.01a16.2 16.2 0 001.295-1.885l-.019-.011c.385-.656.731-1.336 1.022-2.047l.01.006c.163-.4.305-.808.435-1.22.025-.08.045-.162.069-.243.07-.237.145-.474.204-.714l-.019-.004c.183-.734.332-1.48.41-2.25z" fill="#FFF" fill-rule="evenodd"/></svg><svg width="32" height="32" viewBox="-4 -4 32 32" x="114" y="131" xmlns="http://www.w3.org/2000/svg"><g fill="none" fill-rule="evenodd"><path d="M0 0h24v24H0z"/><circle stroke="#D2D8D9" fill="#FFF" cx="12" cy="12" r="9.5"/><circle fill="#D2D8D9" cx="12" cy="12" r="6"/></g></svg><svg width="32" height="32" viewBox="-4 -4 32 32" x="82" y="131" xmlns="http://www.w3.org/2000/svg"><g fill="none" fill-rule="evenodd"><path d="M0 0h24v24H0z"/><circle stroke="#4AAF70" fill="#FFF" cx="12" cy="12" r="9.5"/><circle fill="#4AAF70" cx="12" cy="12" r="6"/></g></svg><svg width="50" height="60" viewBox="-4 -4 50 60" y="103" xmlns="http://www.w3.org/2000/svg"><defs><filter x="-40%" y="-19%" width="166.7%" height="143.5%" filterUnits="objectBoundingBox" id="ad"><feOffset dx="-2" dy="2" in="SourceAlpha" result="shadowOffsetOuter1"/><feGaussianBlur stdDeviation="3" in="shadowOffsetOuter1" result="shadowBlurOuter1"/><feColorMatrix values="0 0 0 0 0 0 0 0 0 0 0 0 0 0 0 0 0 0 0.16 0" in="shadowBlurOuter1"/></filter><path d="M2 0h26a2 2 0 012 2v36.263a2 2 0 01-3.11 1.664L16.11 32.74a2 2 0 00-2.22 0L3.11 39.927A2 2 0 010 38.263V2a2 2 0 012-2z" id="ae"/></defs><g transform="translate(8 4)" fill="none" fill-rule="evenodd"><use fill="#000" filter="url(#ad)" xlink:href="#ae"/><use fill="#9EA8AA" xlink:href="#ae"/></g></svg><svg width="50" height="60" viewBox="-4 -4 50 60" x="139" xmlns="http://www.w3.org/2000/svg"><defs><filter x="-40%" y="-19%" width="166.7%" height="143.5%" filterUnits="objectBoundingBox" id="af"><feOffset dx="-2" dy="2" in="SourceAlpha" result="shadowOffsetOuter1"/><feGaussianBlur stdDeviation="3" in="shadowOffsetOuter1" result="shadowBlurOuter1"/><feColorMatrix values="0 0 0 0 0 0 0 0 0 0 0 0 0 0 0 0 0 0 0.16 0" in="shadowBlurOuter1"/></filter><path d="M2 0h26a2 2 0 012 2v36.263a2 2 0 01-3.11 1.664L16.11 32.74a2 2 0 00-2.22 0L3.11 39.927A2 2 0 010 38.263V2a2 2 0 012-2z" id="ag"/></defs><g transform="translate(8 4)" fill="none" fill-rule="evenodd"><use fill="#000" filter="url(#af)" xlink:href="#ag"/><use fill="#EE293B" xlink:href="#ag"/></g></svg><svg width="32" height="32" viewBox="-4 -4 32 32" x="136" y="299" xmlns="http://www.w3.org/2000/svg"><path d="M14.633 2.876l-2.12-2.12a.15.15 0 00-.255.106v1.532c-.087-.002-.171-.013-.258-.013-5.38 0-9.756 4.377-9.756 9.757a9.71 9.71 0 002.643 6.663l.82-.77a8.597 8.597 0 01-2.338-5.893c0-4.76 3.872-8.632 8.631-8.632.087 0 .171.01.258.014V5.1a.15.15 0 00.255.107l2.12-2.12a.15.15 0 000-.211M18.24 4.64l-.721.864a8.614 8.614 0 013.113 6.634c0 4.76-3.873 8.632-8.631 8.632a8.576 8.576 0 01-1.75-.202v-1.67a.15.15 0 00-.256-.105l-2.12 2.12a.15.15 0 000 .212l2.12 2.119a.15.15 0 00.257-.107v-1.426c.59.11 1.177.184 1.749.184 5.38 0 9.756-4.377 9.756-9.757A9.737 9.737 0 0018.24 4.64" fill="#FFF" fill-rule="evenodd"/></svg><svg width="26" height="26" viewBox="-4 -4 26 26" x="133" y="335" xmlns="http://www.w3.org/2000/svg"><g fill="none" fill-rule="evenodd"><path d="M0 9a9 9 0 1118 0A9 9 0 010 9z" fill="#F6F6F6"/><path stroke="#979797" stroke-width="1.2" stroke-linecap="round" stroke-linejoin="round" d="M6.204 7.6L9 10.4l2.796-2.8"/></g></svg><svg width="44" height="44" viewBox="-4 -4 44 44" x="289" y="44" xmlns="http://www.w3.org/2000/svg"><defs><path d="M13.17.87a2.88 2.88 0 00-2.1-.87L2.89.08C1.36.09.09 1.36.08 2.89L0 11.07c-.01.83.33 1.58.88 2.11.01.01.01.02.02.03l11.94 11.95c1.14 1.14 3.01 1.12 4.17-.04l8.1-8.1c1.16-1.16 1.18-3.03.04-4.17L13.21.9c-.01-.01-.03-.02-.04-.03" id="ah"/><path id="aj" d="M0 0h42v42H0z"/><path id="al" d="M3.314 3.314h16v16h-16z"/><path id="an" d="M0 0h28v28H0z"/><path id="ap" d="M0 0h42v42H0z"/><path id="ar" d="M3.314 3.314h16v16h-16z"/><path id="at" d="M0 0h28v28H0z"/><path id="av" d="M0 0h42v42H0z"/><path id="ax" d="M0 0h28v28H0z"/><path d="M2.45 2.45A1.436 1.436 0 01.42.42c.56-.56 1.47-.56 2.03 0 .56.55.56 1.46 0 2.03" id="az"/></defs><g fill="none" fill-rule="evenodd"><path d="M18.17 5.87a2.88 2.88 0 00-2.1-.87l-8.18.08c-1.53.01-2.8 1.28-2.81 2.81L5 16.07c-.01.83.33 1.58.88 2.11.01.01.01.02.02.03l11.94 11.95c1.14 1.14 3.01 1.12 4.17-.04l8.1-8.1c1.16-1.16 1.18-3.03.04-4.17L18.21 5.9c-.01-.01-.03-.02-.04-.03" stroke="#303535" stroke-width="1.5"/><g transform="translate(5 5)"><mask id="ai" fill="#fff"><use xlink:href="#ah"/></mask><g mask="url(#ai)"><g transform="translate(-8 -8)"><mask id="ak" fill="#fff"><use xlink:href="#aj"/></mask><g mask="url(#ak)"><g transform="translate(.686 .686)"><mask id="am" fill="#fff"><use xlink:href="#al" transform="rotate(-45 11.314 11.314)"/></mask><g mask="url(#am)"><g transform="translate(6.314 6.314)"><mask id="ao" fill="#fff"><use xlink:href="#an"/></mask><path fill="#4AAF70" fill-rule="nonzero" mask="url(#ao)" transform="rotate(-45 8.154 8.157)" d="M-4.381-4.378h25.07v25.07h-25.07z"/></g></g></g></g></g><g transform="translate(-8 -8)"><mask id="aq" fill="#fff"><use xlink:href="#ap"/></mask><g mask="url(#aq)"><g transform="translate(11.686 11.687)"><mask id="as" fill="#fff"><use xlink:href="#ar" transform="rotate(-45 11.314 11.314)"/></mask><g mask="url(#as)"><g transform="translate(-4.686 -4.686)"><mask id="au" fill="#fff"><use xlink:href="#at"/></mask><path fill="#FFF" fill-rule="nonzero" mask="url(#au)" transform="rotate(-45 16 16)" d="M-1-1h34v34H-1z"/></g></g></g></g></g><g transform="translate(-8 -8)"><mask id="aw" fill="#fff"><use xlink:href="#av"/></mask><g mask="url(#aw)"><g transform="translate(7 7)"><mask id="ay" fill="#fff"><use xlink:href="#ax"/></mask><path d="M12.07 1l-8.18.08c-1.53.01-2.8 1.28-2.81 2.81L1 12.07c-.01.83.33 1.58.88 2.11.01.01.01.02.02.03l11.94 11.95c1.14 1.14 3.01 1.12 4.17-.04l8.1-8.1c1.16-1.16 1.18-3.03.04-4.17L14.21 1.9c-.01-.01-.03-.02-.04-.03a2.88 2.88 0 00-2.1-.87z" stroke="#303535" stroke-width="1.5" mask="url(#ay)"/></g></g></g></g></g><path stroke="#303535" stroke-width="1.5" stroke-linecap="round" d="M20.1 15.12v9"/><path d="M24.95 20.31a1.436 1.436 0 01-2.03-2.03c.56-.56 1.47-.56 2.03 0 .57.55.57 1.46 0 2.03m-7.64 0a1.436 1.436 0 01-2.03-2.03c.56-.56 1.47-.56 2.03 0 .56.55.56 1.46 0 2.03" stroke="#303535" stroke-width="1.5"/><g transform="translate(8.86 8.86)"><mask id="aA" fill="#fff"><use xlink:href="#az"/></mask><path fill="#FFF" fill-rule="nonzero" mask="url(#aA)" d="M-1.15-1.15h5.16v5.16h-5.16z"/></g><path d="M11.31 11.31a1.436 1.436 0 01-2.03-2.03c.56-.56 1.47-.56 2.03 0 .56.55.56 1.46 0 2.03m9.4-2.46L8.85 20.73" stroke="#303535" stroke-width="1.5"/></g></svg><svg width="22" height="23" viewBox="-4 -4 22 23" x="229" y="335" xmlns="http://www.w3.org/2000/svg"><g transform="translate(0 .898)" fill="none" fill-rule="evenodd"><circle fill="#F6F6F6" cx="7" cy="7" r="7"/><path stroke="#80888A" stroke-linecap="round" stroke-linejoin="round" d="M6 4l3 3-3 3"/></g></svg><svg width="28" height="28" viewBox="-4 -4 28 28" x="224" y="299" xmlns="http://www.w3.org/2000/svg"><defs><path id="aB" d="M0 0h18.852v18.852H0z"/></defs><g transform="translate(0 .898)" fill="none" fill-rule="evenodd"><mask id="aC" fill="#fff"><use xlink:href="#aB"/></mask><path d="M7.807 14.114A6.314 6.314 0 011.5 7.807 6.314 6.314 0 017.807 1.5a6.314 6.314 0 016.307 6.307 6.314 6.314 0 01-6.307 6.307m10.825 3.457l-4.8-4.799A7.807 7.807 0 007.807 0 7.807 7.807 0 000 7.807a7.807 7.807 0 0012.772 6.025l4.8 4.8a.748.748 0 001.06 0 .75.75 0 000-1.061" fill="#80888A" mask="url(#aC)"/></g></svg><svg width="28" height="28" viewBox="-4 -4 28 28" x="336" y="299" xmlns="http://www.w3.org/2000/svg"><g fill="none" fill-rule="evenodd"><circle fill="#F4F4F4" cx="10" cy="10" r="10"/><path d="M9.141 12.487A3.35 3.35 0 015.796 9.14 3.35 3.35 0 019.14 5.796a3.35 3.35 0 013.346 3.345 3.35 3.35 0 01-3.346 3.346m5.742 1.834l-2.546-2.546a4.141 4.141 0 10-.562.562l2.546 2.546a.397.397 0 10.562-.562" fill="#AAA"/></g></svg><svg width="46" height="46" viewBox="-4 -4 46 46" x="142" y="163" xmlns="http://www.w3.org/2000/svg"><g fill="none" fill-rule="evenodd"><path d="M0 0h38v38H0z"/><path stroke="#DDD" d="M12 24V12h12m1.301 13.324L12.5 12.5"/></g></svg><svg width="44" height="44" viewBox="-4 -4 44 44" x="220" y="211" xmlns="http://www.w3.org/2000/svg"><path d="M24.728 22.588V16.38a.716.716 0 00.097-.012c1.402.527 2.117 1.562 2.117 3.09 0 1.953-1.252 2.782-2.214 3.13zm-13.457 0c-.962-.348-2.213-1.177-2.213-3.13 0-1.565.745-2.617 2.213-3.13v6.26zm17.021-3.13c0-2.292-1.262-3.71-3.045-4.367a7.689 7.689 0 00-7.39-5.485 7.691 7.691 0 00-7.427 5.613c-1.611.705-2.722 2.088-2.722 4.24 0 2.464 1.525 4.002 3.602 4.554.094.025.188.037.28.037.55 0 1.031-.423 1.031-.984v-7.214c0-.432-.286-.776-.667-.915a6.343 6.343 0 015.903-3.98 6.338 6.338 0 015.949 4.118c-.25.176-.428.446-.428.777v7.214a.92.92 0 00.21.565c-.015.057-.034.112-.034.173 0 2.26-.84 2.26-1.156 2.26-.019 0-.035.009-.053.01a1.349 1.349 0 00-1.108-.58h-.692a1.35 1.35 0 100 2.7h.692c.542 0 1.006-.321 1.221-.783.927-.019 2.394-.521 2.441-3.469 1.967-.598 3.393-2.105 3.393-4.483z" fill="gray" fill-rule="evenodd"/></svg><svg width="44" height="44" viewBox="-4 -4 44 44" y="211" xmlns="http://www.w3.org/2000/svg"><g fill="none" fill-rule="evenodd"><path d="M31.395 15.646h-2.632a10.865 10.865 0 00-1.508-3.644l1.81-1.81a.606.606 0 000-.856L26.59 6.864a.603.603 0 00-.855 0l-1.81 1.81a10.873 10.873 0 00-3.643-1.509V4.604A.604.604 0 0019.678 4H16.18a.604.604 0 00-.605.604v2.624a10.89 10.89 0 00-3.572 1.517l-1.882-1.881a.603.603 0 00-.854 0L6.793 9.336a.606.606 0 000 .856l1.942 1.941c-.663 1.068-1.172 2.242-1.437 3.513H4.605A.605.605 0 004 16.25v3.497c0 .335.27.605.605.605h2.756a10.88 10.88 0 001.446 3.44l-2.014 2.014a.605.605 0 000 .855l2.474 2.473a.605.605 0 00.854 0l2.014-2.014a10.87 10.87 0 003.44 1.446v2.827c0 .334.27.605.605.605h3.498c.334 0 .605-.27.605-.605V28.63c1.27-.266 2.443-.774 3.511-1.438l1.942 1.942a.605.605 0 00.855 0l2.474-2.473a.605.605 0 000-.855l-1.882-1.882a10.9 10.9 0 001.517-3.572h2.695c.334 0 .605-.27.605-.605V16.25a.605.605 0 00-.605-.605" fill="#FFF"/><path d="M31.395 15.646h-2.632a10.865 10.865 0 00-1.508-3.644l1.81-1.81a.606.606 0 000-.856L26.59 6.864a.603.603 0 00-.855 0l-1.81 1.81a10.873 10.873 0 00-3.643-1.509V4.604A.604.604 0 0019.678 4H16.18a.604.604 0 00-.605.604v2.624a10.89 10.89 0 00-3.572 1.517l-1.882-1.881a.603.603 0 00-.854 0L6.793 9.336a.606.606 0 000 .856l1.942 1.941c-.663 1.068-1.172 2.242-1.437 3.513H4.605A.605.605 0 004 16.25v3.497c0 .335.27.605.605.605h2.756a10.88 10.88 0 001.446 3.44l-2.014 2.014a.605.605 0 000 .855l2.474 2.473a.605.605 0 00.854 0l2.014-2.014a10.87 10.87 0 003.44 1.446v2.827c0 .334.27.605.605.605h3.498c.334 0 .605-.27.605-.605V28.63c1.27-.266 2.443-.774 3.511-1.438l1.942 1.942a.605.605 0 00.855 0l2.474-2.473a.605.605 0 000-.855l-1.882-1.882a10.9 10.9 0 001.517-3.572h2.695c.334 0 .605-.27.605-.605V16.25a.605.605 0 00-.605-.605" stroke="#303535" stroke-width="1.5"/><path d="M23.375 17.787a5.447 5.447 0 11-10.894 0 5.447 5.447 0 0110.894 0" stroke="#303535" stroke-width="1.5" fill="#4AAF70"/></g></svg><svg width="28" height="28" viewBox="-4 -4 28 28" x="196" y="299" xmlns="http://www.w3.org/2000/svg"><g fill="none" fill-rule="evenodd"><g fill="#CCC"><path d="M11.491 3.991c0 1.1.893 1.991 1.996 1.991a1.993 1.993 0 001.995-1.99c0-1.1-.893-1.992-1.995-1.992a1.993 1.993 0 00-1.996 1.991"/><path d="M13.488 2.731a1.263 1.263 0 010 2.524 1.263 1.263 0 010-2.524m0 3.986a2.728 2.728 0 002.724-2.724 2.727 2.727 0 00-2.724-2.724 2.727 2.727 0 00-2.724 2.724 2.728 2.728 0 002.724 2.724"/><path d="M11.491 3.991c0 1.1.893 1.991 1.996 1.991a1.993 1.993 0 001.995-1.99c0-1.1-.893-1.992-1.995-1.992a1.993 1.993 0 00-1.996 1.991"/><path d="M13.488 2.731a1.263 1.263 0 010 2.524 1.263 1.263 0 010-2.524m0 3.986a2.728 2.728 0 002.724-2.724 2.727 2.727 0 00-2.724-2.724 2.727 2.727 0 00-2.724 2.724 2.728 2.728 0 002.724 2.724m-1.997 9.232a1.996 1.996 0 103.992 0 1.996 1.996 0 00-3.992 0"/><path d="M13.488 14.687c.696 0 1.262.566 1.262 1.262a1.263 1.263 0 01-2.524 0c0-.696.566-1.262 1.262-1.262m0 3.986a2.727 2.727 0 002.724-2.724 2.727 2.727 0 00-2.724-2.724 2.727 2.727 0 00-2.724 2.724 2.727 2.727 0 002.724 2.724"/><path d="M11.491 15.949a1.996 1.996 0 103.992 0 1.996 1.996 0 00-3.992 0"/><path d="M13.488 14.687c.696 0 1.262.566 1.262 1.262a1.263 1.263 0 01-2.524 0c0-.696.566-1.262 1.262-1.262m0 3.986a2.727 2.727 0 002.724-2.724 2.727 2.727 0 00-2.724-2.724 2.727 2.727 0 00-2.724 2.724 2.727 2.727 0 002.724 2.724M4.522 9.972c0 1.102.89 1.996 1.99 1.996s1.99-.894 1.99-1.996c0-1.102-.89-1.996-1.99-1.996s-1.99.894-1.99 1.996"/><path d="M6.513 8.71c.696 0 1.262.565 1.262 1.262a1.263 1.263 0 01-2.524 0c0-.697.567-1.263 1.262-1.263m0 3.986a2.727 2.727 0 002.724-2.723 2.728 2.728 0 00-2.724-2.725A2.727 2.727 0 003.79 9.972a2.727 2.727 0 002.724 2.723"/><path d="M4.522 9.972c0 1.102.89 1.996 1.99 1.996s1.99-.894 1.99-1.996c0-1.102-.89-1.996-1.99-1.996s-1.99.894-1.99 1.996"/><path d="M6.513 8.71c.696 0 1.262.565 1.262 1.262a1.263 1.263 0 01-2.524 0c0-.697.567-1.263 1.262-1.263m0 3.986a2.727 2.727 0 002.724-2.723 2.728 2.728 0 00-2.724-2.725A2.727 2.727 0 003.79 9.972a2.727 2.727 0 002.724 2.723"/><path d="M12.303 5.717L8.405 9.035l-.95-1.116 3.9-3.317zM12.3 14.39l-.948 1.116-3.898-3.317.948-1.115z"/></g><path d="M0 20V0h20v20z"/></g></svg><svg width="44" height="44" viewBox="-4 -4 44 44" x="245" y="44" xmlns="http://www.w3.org/2000/svg"><path d="M28.913 29.61a3.774 3.774 0 01-3.77-3.77 3.774 3.774 0 013.77-3.768 3.774 3.774 0 013.77 3.769 3.775 3.775 0 01-3.77 3.77zM18.34 23.943a5.237 5.237 0 00-2.498-2.74V9.061c0-.761.62-1.38 1.38-1.38h13.5c.761 0 1.38.619 1.38 1.38v12.665c-.887-.689-1.985-1.116-3.19-1.116-2.213 0-4.098 1.386-4.862 3.33h-5.71zm-4.86 5.667a3.774 3.774 0 01-3.769-3.77 3.773 3.773 0 013.769-3.769 3.774 3.774 0 013.77 3.769 3.774 3.774 0 01-3.77 3.77zm-8.641-5.576c-.81 0-1.47-.659-1.47-1.469v-3.372a5.978 5.978 0 015.972-5.971h4.762v7.45c-.207-.024-.41-.062-.623-.062-2.247 0-4.15 1.432-4.89 3.424H4.84zm28.8-.396c.129-.335.204-.696.204-1.077v-13.5c0-1.72-1.4-3.12-3.12-3.12h-13.5c-1.72 0-3.12 1.4-3.12 3.12v2.598H9.341c-4.155 0-7.534 3.38-7.534 7.534v3.372a3.035 3.035 0 003.032 3.032h3.435c-.004.082-.024.16-.024.243a5.237 5.237 0 005.23 5.231 5.237 5.237 0 005.231-5.231c0-.054-.015-.105-.017-.159h5.004c-.001.054-.016.105-.016.159a5.237 5.237 0 005.23 5.231 5.237 5.237 0 005.23-5.231c0-.789-.187-1.53-.502-2.202z" fill="#FFF" fill-rule="evenodd"/></svg><svg width="44" height="44" viewBox="-4 -4 44 44" x="289" y="176" xmlns="http://www.w3.org/2000/svg"><g transform="translate(4 4)" fill="none" fill-rule="evenodd"><rect fill="#FFF" width="28" height="28" rx="6"/><rect stroke="#303535" stroke-width="1.5" x=".75" y=".75" width="26.5" height="26.5" rx="6"/><path d="M20.999 11.287l-6.317-4.73a.762.762 0 00-.43-.146.784.784 0 00-.784.783V8.7C9.906 9.126 7 12.164 7 15.84c0 2.942.74 5.457 4.443 6.57-.42-.374-1.669-2.118-1.669-3.657 0-2.276 1.415-4.038 3.691-4.038h.003v2.606c0 .433.35.784.783.784a.762.762 0 00.432-.148l6.347-4.702c.307-.222.52-.566.52-.974 0-.421-.227-.774-.551-.995" stroke="#303535" stroke-width="1.5" fill="#4AAF70"/></g></svg><svg width="20" height="21" viewBox="-4 -4 20 21" x="88" y="363" xmlns="http://www.w3.org/2000/svg"><path stroke="gray" stroke-width="1.2" stroke-linecap="round" stroke-linejoin="round" d="M5.004 9.595l2.8-2.797-2.8-2.796" fill="none"/></svg><svg width="21" height="20" viewBox="-4 -4 21 20" x="72" y="83" xmlns="http://www.w3.org/2000/svg"><path stroke="#4AAF70" stroke-width="1.2" stroke-linecap="round" stroke-linejoin="round" d="M4.404 4.4L7.2 7.2l2.796-2.8" fill="none"/></svg><svg width="22" height="22" viewBox="-4 -4 22 22" x="296" y="335" xmlns="http://www.w3.org/2000/svg"><g fill="none" fill-rule="evenodd"><path stroke="#EEE" d="M2 11.5l10-10"/><path d="M0 0h14v14H0z"/></g></svg><svg width="72" height="20" viewBox="-4 -4 72 20" y="83" xmlns="http://www.w3.org/2000/svg"><path d="M6 9l-3.527 1.854.674-3.927L.294 4.146l3.943-.573L6 0l1.763 3.573 3.943.573-2.853 2.781.674 3.927zm13 0l-3.527 1.854.674-3.927-2.853-2.781 3.943-.573L19 0l1.763 3.573 3.943.573-2.853 2.781.674 3.927zm13 0l-3.527 1.854.674-3.927-2.853-2.781 3.943-.573L32 0l1.763 3.573 3.943.573-2.853 2.781.674 3.927zm13 0l-3.527 1.854.674-3.927-2.853-2.781 3.943-.573L45 0l1.763 3.573 3.943.573-2.853 2.781.674 3.927zm13 0l-3.527 1.854.674-3.927-2.853-2.781 3.943-.573L58 0l1.763 3.573 3.943.573-2.853 2.781.674 3.927z" fill="#F4D41A" fill-rule="evenodd"/></svg><svg width="20" height="19" viewBox="-4 -4 20 19" x="264" y="235" xmlns="http://www.w3.org/2000/svg"><path d="M6 8.99l-3.527 1.854.674-3.927-2.853-2.78 3.943-.574L6-.01l1.763 3.573 3.943.573-2.853 2.781.674 3.927z" fill="#F4D41A" fill-rule="evenodd"/></svg><svg width="44" height="44" viewBox="-4 -4 44 44" x="44" y="211" xmlns="http://www.w3.org/2000/svg"><g fill="none" fill-rule="evenodd"><path d="M5 14h26v12a6 6 0 01-6 6H11a6 6 0 01-6-6V14z" fill="#FFF"/><path d="M30.25 14.75V26c0 1.45-.588 2.762-1.538 3.712A5.234 5.234 0 0125 31.25H11a5.234 5.234 0 01-3.712-1.538A5.234 5.234 0 015.75 26V14.75h24.5z" stroke="#303535" stroke-width="1.5"/><path d="M21.25 31.25h-6.5V23c0-.621.252-1.184.659-1.591.407-.407.97-.659 1.591-.659h2c.621 0 1.184.252 1.591.659.407.407.659.97.659 1.591v8.25z" stroke="#303535" stroke-width="1.5"/><path d="M33.188 11.931l-.137-.286a4.316 4.316 0 00-.304-.545L29.88 5.956a3 3 0 00-2.62-1.54H8.74a3 3 0 00-2.62 1.54L3.254 11.1a4.322 4.322 0 00-.305.545l-.137.286a4.218 4.218 0 00-.016 3.145 4.259 4.259 0 003.086 2.627 4.232 4.232 0 003.934-1.2c.39-.404 1.029-.38 1.424.02a4.22 4.22 0 006.037.002 1.004 1.004 0 011.446 0 4.22 4.22 0 006.038-.002c.394-.4 1.032-.424 1.423-.02a4.232 4.232 0 003.934 1.2 4.257 4.257 0 003.086-2.627 4.218 4.218 0 00-.016-3.145" stroke="#303535" stroke-width="1.5" fill="#4AAF70"/></g></svg><svg width="26" height="26" viewBox="-4 -4 26 26" x="369" y="314" xmlns="http://www.w3.org/2000/svg"><g fill="none" fill-rule="evenodd"><path d="M0 0h18v18H0z"/><g transform="translate(3 3)"><circle fill="#D2D8D9" cx="6" cy="6" r="6"/><path stroke="#FFF" stroke-linecap="round" d="M8.993 8.2L6 6V1.985"/></g></g></svg><svg width="26" height="26" viewBox="-4 -4 26 26" x="369" y="288" xmlns="http://www.w3.org/2000/svg"><g fill="none" fill-rule="evenodd"><circle fill="#d0cfd1" cx="9" cy="9" r="9"/><text font-family="Pretendard-Medium, Pretendard" font-size="12" font-weight="400" fill="#FFF"><tspan x="6" y="13.5">?</tspan></text></g></svg><svg width="26" height="26" viewBox="-4 -4 26 26" x="369" y="158" xmlns="http://www.w3.org/2000/svg"><g fill="none" fill-rule="evenodd"><circle fill="#9EA8AA" cx="9" cy="9" r="9"/><text font-family="Pretendard-Medium, Pretendard" font-size="12" font-weight="400" fill="#FFF"><tspan x="6" y="13.5">?</tspan></text></g></svg><svg width="22" height="22" viewBox="-4 -4 22 22" x="66" y="363" xmlns="http://www.w3.org/2000/svg"><g fill="none" fill-rule="evenodd"><circle fill="#CDD5D7" cx="7" cy="7" r="7"/><text font-family="Pretendard-Medium, Pretendard" font-size="9.333" font-weight="400" fill="#FFF"><tspan x="4.667" y="10.167">?</tspan></text></g></svg><svg width="15" height="15" viewBox="-4 -4 15 15" x="141" y="363" xmlns="http://www.w3.org/2000/svg"><path d="M3.5 5.25L0 1.75h7z" fill="#606060" fill-rule="evenodd"/></svg><svg width="36" height="36" viewBox="-4 -4 36 36" x="333" y="72" xmlns="http://www.w3.org/2000/svg"><g fill="none" fill-rule="evenodd"><path fill="#4AAF70" d="M0 0h28v28H0z"/><g fill="#FFF" stroke="#FFF" stroke-width="1.2"><path d="M13.353 9h1.294v11h-1.294z"/><path d="M19.5 13.853v1.294h-11v-1.294z"/></g></g></svg><svg width="27" height="27" viewBox="-4 -4 27 27" x="369" y="53" xmlns="http://www.w3.org/2000/svg"><g fill="none" fill-rule="evenodd"><path d="M0 9.5a9.5 9.5 0 1119 0 9.5 9.5 0 01-19 0z" fill="#4AAF70"/><text font-family="Pretendard-Bold, Pretendard" font-size="13" font-weight="bold" fill="#FFF"><tspan x="7.507" y="14">!</tspan></text></g></svg><svg width="26" height="26" viewBox="-4 -4 26 26" x="369" y="236" xmlns="http://www.w3.org/2000/svg"><g fill="none" fill-rule="evenodd"><circle fill="#CDD5D7" cx="9" cy="9" r="9"/><text font-family="Pretendard-Medium, Pretendard" font-size="12" font-weight="400" fill="#FFF"><tspan x="7.734" y="13.5">!</tspan></text></g></svg><svg width="27" height="27" viewBox="-4 -4 27 27" x="369" xmlns="http://www.w3.org/2000/svg"><g fill="none" fill-rule="evenodd"><path d="M0 9.5a9.5 9.5 0 1119 0 9.5 9.5 0 01-19 0z" fill="#FA5A5A"/><text font-family="Pretendard-Bold, Pretendard" font-size="13" font-weight="bold" fill="#FFF"><tspan x="7.507" y="14">!</tspan></text></g></svg><svg width="43" height="43" viewBox="-4 -4 43 43" x="130" y="255" xmlns="http://www.w3.org/2000/svg"><path d="M23.752 9.722H11.248a4.442 4.442 0 00-4.442 4.442v6.251a4.442 4.442 0 004.442 4.443h12.504a4.442 4.442 0 004.442-4.443v-6.25a4.442 4.442 0 00-4.442-4.443zm-3.004 7.872l-5.849 2.79a.235.235 0 01-.336-.212v-5.754c0-.175.185-.288.341-.21l5.85 2.965a.235.235 0 01-.006.421z" fill="#646465"/></svg></svg>